<?xml version="1.0" encoding="UTF-8" ?>
<svg version="1.1" width="153" height="13" xmlns="http://www.w3.org/2000/svg" shape-rendering="crispEdges">
<rect x="6" y="0" width="1" height="1" fill="#0019B0" />
<rect x="7" y="0" width="1" height="1" fill="#0023FF" />
<rect x="11" y="0" width="1" height="1" fill="#0019B0" />
<rect x="12" y="0" width="1" height="1" fill="#0023FF" />
<rect x="138" y="0" width="1" height="1" fill="#0019B0" />
<rect x="139" y="0" width="1" height="1" fill="#0023FF" />
<rect x="143" y="0" width="1" height="1" fill="#0019B0" />
<rect x="144" y="0" width="1" height="1" fill="#0023FF" />
<rect x="6" y="1" width="1" height="1" fill="#0019B0" />
<rect x="7" y="1" width="1" height="1" fill="#0019B0" />
<rect x="8" y="1" width="1" height="1" fill="#0023FF" />
<rect x="11" y="1" width="1" height="1" fill="#0019B0" />
<rect x="12" y="1" width="1" height="1" fill="#0019B0" />
<rect x="13" y="1" width="1" height="1" fill="#0023FF" />
<rect x="138" y="1" width="1" height="1" fill="#0019B0" />
<rect x="139" y="1" width="1" height="1" fill="#0019B0" />
<rect x="140" y="1" width="1" height="1" fill="#0023FF" />
<rect x="143" y="1" width="1" height="1" fill="#0019B0" />
<rect x="144" y="1" width="1" height="1" fill="#0019B0" />
<rect x="145" y="1" width="1" height="1" fill="#0023FF" />
<rect x="7" y="2" width="1" height="1" fill="#0019B0" />
<rect x="8" y="2" width="1" height="1" fill="#0019B0" />
<rect x="11" y="2" width="1" height="1" fill="#0019B0" />
<rect x="12" y="2" width="1" height="1" fill="#0019B0" />
<rect x="13" y="2" width="1" height="1" fill="#0019B0" />
<rect x="16" y="2" width="1" height="1" fill="#0019B0" />
<rect x="17" y="2" width="1" height="1" fill="#0023FF" />
<rect x="139" y="2" width="1" height="1" fill="#0019B0" />
<rect x="140" y="2" width="1" height="1" fill="#0019B0" />
<rect x="143" y="2" width="1" height="1" fill="#0019B0" />
<rect x="144" y="2" width="1" height="1" fill="#0019B0" />
<rect x="145" y="2" width="1" height="1" fill="#0019B0" />
<rect x="148" y="2" width="1" height="1" fill="#0019B0" />
<rect x="149" y="2" width="1" height="1" fill="#0023FF" />
<rect x="4" y="3" width="1" height="1" fill="#0019B0" />
<rect x="5" y="3" width="1" height="1" fill="#0023FF" />
<rect x="9" y="3" width="1" height="1" fill="#397B44" />
<rect x="12" y="3" width="1" height="1" fill="#397B44" />
<rect x="16" y="3" width="1" height="1" fill="#0019B0" />
<rect x="17" y="3" width="1" height="1" fill="#0023FF" />
<rect x="18" y="3" width="1" height="1" fill="#0023FF" />
<rect x="136" y="3" width="1" height="1" fill="#0019B0" />
<rect x="137" y="3" width="1" height="1" fill="#0023FF" />
<rect x="141" y="3" width="1" height="1" fill="#397B44" />
<rect x="144" y="3" width="1" height="1" fill="#397B44" />
<rect x="148" y="3" width="1" height="1" fill="#0019B0" />
<rect x="149" y="3" width="1" height="1" fill="#0023FF" />
<rect x="150" y="3" width="1" height="1" fill="#0023FF" />
<rect x="4" y="4" width="1" height="1" fill="#0019B0" />
<rect x="5" y="4" width="1" height="1" fill="#0023FF" />
<rect x="9" y="4" width="1" height="1" fill="#397B44" />
<rect x="12" y="4" width="1" height="1" fill="#397B44" />
<rect x="16" y="4" width="1" height="1" fill="#0019B0" />
<rect x="17" y="4" width="1" height="1" fill="#0019B0" />
<rect x="136" y="4" width="1" height="1" fill="#0019B0" />
<rect x="137" y="4" width="1" height="1" fill="#0023FF" />
<rect x="141" y="4" width="1" height="1" fill="#397B44" />
<rect x="144" y="4" width="1" height="1" fill="#397B44" />
<rect x="148" y="4" width="1" height="1" fill="#0019B0" />
<rect x="149" y="4" width="1" height="1" fill="#0019B0" />
<rect x="4" y="5" width="1" height="1" fill="#0019B0" />
<rect x="5" y="5" width="1" height="1" fill="#0019B0" />
<rect x="9" y="5" width="1" height="1" fill="#397B44" />
<rect x="13" y="5" width="1" height="1" fill="#397B44" />
<rect x="15" y="5" width="1" height="1" fill="#397B44" />
<rect x="136" y="5" width="1" height="1" fill="#0019B0" />
<rect x="137" y="5" width="1" height="1" fill="#0019B0" />
<rect x="141" y="5" width="1" height="1" fill="#397B44" />
<rect x="145" y="5" width="1" height="1" fill="#397B44" />
<rect x="147" y="5" width="1" height="1" fill="#397B44" />
<rect x="5" y="6" width="1" height="1" fill="#397B44" />
<rect x="10" y="6" width="1" height="1" fill="#397B44" />
<rect x="13" y="6" width="1" height="1" fill="#397B44" />
<rect x="14" y="6" width="1" height="1" fill="#397B44" />
<rect x="137" y="6" width="1" height="1" fill="#397B44" />
<rect x="142" y="6" width="1" height="1" fill="#397B44" />
<rect x="145" y="6" width="1" height="1" fill="#397B44" />
<rect x="146" y="6" width="1" height="1" fill="#397B44" />
<rect x="5" y="7" width="1" height="1" fill="#397B44" />
<rect x="6" y="7" width="1" height="1" fill="#71AA34" />
<rect x="7" y="7" width="1" height="1" fill="#71AA34" />
<rect x="10" y="7" width="1" height="1" fill="#397B44" />
<rect x="12" y="7" width="1" height="1" fill="#71AA34" />
<rect x="13" y="7" width="1" height="1" fill="#397B44" />
<rect x="14" y="7" width="1" height="1" fill="#397B44" />
<rect x="137" y="7" width="1" height="1" fill="#397B44" />
<rect x="138" y="7" width="1" height="1" fill="#71AA34" />
<rect x="139" y="7" width="1" height="1" fill="#71AA34" />
<rect x="142" y="7" width="1" height="1" fill="#397B44" />
<rect x="144" y="7" width="1" height="1" fill="#71AA34" />
<rect x="145" y="7" width="1" height="1" fill="#397B44" />
<rect x="146" y="7" width="1" height="1" fill="#397B44" />
<rect x="5" y="8" width="1" height="1" fill="#397B44" />
<rect x="6" y="8" width="1" height="1" fill="#397B44" />
<rect x="7" y="8" width="1" height="1" fill="#71AA34" />
<rect x="8" y="8" width="1" height="1" fill="#71AA34" />
<rect x="10" y="8" width="1" height="1" fill="#397B44" />
<rect x="12" y="8" width="1" height="1" fill="#397B44" />
<rect x="13" y="8" width="1" height="1" fill="#71AA34" />
<rect x="14" y="8" width="1" height="1" fill="#397B44" />
<rect x="137" y="8" width="1" height="1" fill="#397B44" />
<rect x="138" y="8" width="1" height="1" fill="#397B44" />
<rect x="139" y="8" width="1" height="1" fill="#71AA34" />
<rect x="140" y="8" width="1" height="1" fill="#71AA34" />
<rect x="142" y="8" width="1" height="1" fill="#397B44" />
<rect x="144" y="8" width="1" height="1" fill="#397B44" />
<rect x="145" y="8" width="1" height="1" fill="#71AA34" />
<rect x="146" y="8" width="1" height="1" fill="#397B44" />
<rect x="0" y="9" width="1" height="1" fill="#71AA34" />
<rect x="1" y="9" width="1" height="1" fill="#71AA34" />
<rect x="5" y="9" width="1" height="1" fill="#397B44" />
<rect x="6" y="9" width="1" height="1" fill="#397B44" />
<rect x="7" y="9" width="1" height="1" fill="#71AA34" />
<rect x="8" y="9" width="1" height="1" fill="#71AA34" />
<rect x="10" y="9" width="1" height="1" fill="#397B44" />
<rect x="12" y="9" width="1" height="1" fill="#397B44" />
<rect x="13" y="9" width="1" height="1" fill="#71AA34" />
<rect x="14" y="9" width="1" height="1" fill="#397B44" />
<rect x="15" y="9" width="1" height="1" fill="#71AA34" />
<rect x="16" y="9" width="1" height="1" fill="#71AA34" />
<rect x="19" y="9" width="1" height="1" fill="#71AA34" />
<rect x="20" y="9" width="1" height="1" fill="#71AA34" />
<rect x="132" y="9" width="1" height="1" fill="#71AA34" />
<rect x="133" y="9" width="1" height="1" fill="#71AA34" />
<rect x="137" y="9" width="1" height="1" fill="#397B44" />
<rect x="138" y="9" width="1" height="1" fill="#397B44" />
<rect x="139" y="9" width="1" height="1" fill="#71AA34" />
<rect x="140" y="9" width="1" height="1" fill="#71AA34" />
<rect x="142" y="9" width="1" height="1" fill="#397B44" />
<rect x="144" y="9" width="1" height="1" fill="#397B44" />
<rect x="145" y="9" width="1" height="1" fill="#71AA34" />
<rect x="146" y="9" width="1" height="1" fill="#397B44" />
<rect x="147" y="9" width="1" height="1" fill="#71AA34" />
<rect x="148" y="9" width="1" height="1" fill="#71AA34" />
<rect x="151" y="9" width="1" height="1" fill="#71AA34" />
<rect x="152" y="9" width="1" height="1" fill="#71AA34" />
<rect x="0" y="10" width="1" height="1" fill="#397B44" />
<rect x="1" y="10" width="1" height="1" fill="#71AA34" />
<rect x="2" y="10" width="1" height="1" fill="#71AA34" />
<rect x="3" y="10" width="1" height="1" fill="#71AA34" />
<rect x="5" y="10" width="1" height="1" fill="#3C5956" />
<rect x="6" y="10" width="1" height="1" fill="#3C5956" />
<rect x="7" y="10" width="1" height="1" fill="#3C5956" />
<rect x="8" y="10" width="1" height="1" fill="#397B44" />
<rect x="9" y="10" width="1" height="1" fill="#71AA34" />
<rect x="10" y="10" width="1" height="1" fill="#397B44" />
<rect x="11" y="10" width="1" height="1" fill="#3C5956" />
<rect x="12" y="10" width="1" height="1" fill="#397B44" />
<rect x="13" y="10" width="1" height="1" fill="#71AA34" />
<rect x="14" y="10" width="1" height="1" fill="#397B44" />
<rect x="15" y="10" width="1" height="1" fill="#3C5956" />
<rect x="16" y="10" width="1" height="1" fill="#71AA34" />
<rect x="18" y="10" width="1" height="1" fill="#397B44" />
<rect x="19" y="10" width="1" height="1" fill="#397B44" />
<rect x="20" y="10" width="1" height="1" fill="#71AA34" />
<rect x="132" y="10" width="1" height="1" fill="#397B44" />
<rect x="133" y="10" width="1" height="1" fill="#71AA34" />
<rect x="134" y="10" width="1" height="1" fill="#71AA34" />
<rect x="135" y="10" width="1" height="1" fill="#71AA34" />
<rect x="137" y="10" width="1" height="1" fill="#3C5956" />
<rect x="138" y="10" width="1" height="1" fill="#3C5956" />
<rect x="139" y="10" width="1" height="1" fill="#3C5956" />
<rect x="140" y="10" width="1" height="1" fill="#397B44" />
<rect x="141" y="10" width="1" height="1" fill="#71AA34" />
<rect x="142" y="10" width="1" height="1" fill="#397B44" />
<rect x="143" y="10" width="1" height="1" fill="#3C5956" />
<rect x="144" y="10" width="1" height="1" fill="#397B44" />
<rect x="145" y="10" width="1" height="1" fill="#71AA34" />
<rect x="146" y="10" width="1" height="1" fill="#397B44" />
<rect x="147" y="10" width="1" height="1" fill="#3C5956" />
<rect x="148" y="10" width="1" height="1" fill="#71AA34" />
<rect x="150" y="10" width="1" height="1" fill="#397B44" />
<rect x="151" y="10" width="1" height="1" fill="#397B44" />
<rect x="152" y="10" width="1" height="1" fill="#71AA34" />
<rect x="1" y="11" width="1" height="1" fill="#3C5956" />
<rect x="2" y="11" width="1" height="1" fill="#3C5956" />
<rect x="3" y="11" width="1" height="1" fill="#397B44" />
<rect x="4" y="11" width="1" height="1" fill="#71AA34" />
<rect x="5" y="11" width="1" height="1" fill="#3C5956" />
<rect x="6" y="11" width="1" height="1" fill="#3C5956" />
<rect x="7" y="11" width="1" height="1" fill="#3C5956" />
<rect x="8" y="11" width="1" height="1" fill="#397B44" />
<rect x="9" y="11" width="1" height="1" fill="#397B44" />
<rect x="10" y="11" width="1" height="1" fill="#3C5956" />
<rect x="11" y="11" width="1" height="1" fill="#3C5956" />
<rect x="12" y="11" width="1" height="1" fill="#397B44" />
<rect x="13" y="11" width="1" height="1" fill="#71AA34" />
<rect x="14" y="11" width="1" height="1" fill="#397B44" />
<rect x="15" y="11" width="1" height="1" fill="#3C5956" />
<rect x="16" y="11" width="1" height="1" fill="#397B44" />
<rect x="17" y="11" width="1" height="1" fill="#71AA34" />
<rect x="18" y="11" width="1" height="1" fill="#3C5956" />
<rect x="19" y="11" width="1" height="1" fill="#397B44" />
<rect x="133" y="11" width="1" height="1" fill="#3C5956" />
<rect x="134" y="11" width="1" height="1" fill="#3C5956" />
<rect x="135" y="11" width="1" height="1" fill="#397B44" />
<rect x="136" y="11" width="1" height="1" fill="#71AA34" />
<rect x="137" y="11" width="1" height="1" fill="#3C5956" />
<rect x="138" y="11" width="1" height="1" fill="#3C5956" />
<rect x="139" y="11" width="1" height="1" fill="#3C5956" />
<rect x="140" y="11" width="1" height="1" fill="#397B44" />
<rect x="141" y="11" width="1" height="1" fill="#397B44" />
<rect x="142" y="11" width="1" height="1" fill="#3C5956" />
<rect x="143" y="11" width="1" height="1" fill="#3C5956" />
<rect x="144" y="11" width="1" height="1" fill="#397B44" />
<rect x="145" y="11" width="1" height="1" fill="#71AA34" />
<rect x="146" y="11" width="1" height="1" fill="#397B44" />
<rect x="147" y="11" width="1" height="1" fill="#3C5956" />
<rect x="148" y="11" width="1" height="1" fill="#397B44" />
<rect x="149" y="11" width="1" height="1" fill="#71AA34" />
<rect x="150" y="11" width="1" height="1" fill="#3C5956" />
<rect x="151" y="11" width="1" height="1" fill="#397B44" />
<rect x="2" y="12" width="1" height="1" fill="#3C5956" />
<rect x="3" y="12" width="1" height="1" fill="#3C5956" />
<rect x="4" y="12" width="1" height="1" fill="#3C5956" />
<rect x="5" y="12" width="1" height="1" fill="#397B44" />
<rect x="6" y="12" width="1" height="1" fill="#397B44" />
<rect x="7" y="12" width="1" height="1" fill="#397B44" />
<rect x="8" y="12" width="1" height="1" fill="#3C5956" />
<rect x="9" y="12" width="1" height="1" fill="#3C5956" />
<rect x="10" y="12" width="1" height="1" fill="#3C5956" />
<rect x="11" y="12" width="1" height="1" fill="#3C5956" />
<rect x="12" y="12" width="1" height="1" fill="#397B44" />
<rect x="13" y="12" width="1" height="1" fill="#3C5956" />
<rect x="14" y="12" width="1" height="1" fill="#3C5956" />
<rect x="15" y="12" width="1" height="1" fill="#3C5956" />
<rect x="16" y="12" width="1" height="1" fill="#3C5956" />
<rect x="17" y="12" width="1" height="1" fill="#3C5956" />
<rect x="18" y="12" width="1" height="1" fill="#3C5956" />
<rect x="19" y="12" width="1" height="1" fill="#397B44" />
<rect x="134" y="12" width="1" height="1" fill="#3C5956" />
<rect x="135" y="12" width="1" height="1" fill="#3C5956" />
<rect x="136" y="12" width="1" height="1" fill="#3C5956" />
<rect x="137" y="12" width="1" height="1" fill="#397B44" />
<rect x="138" y="12" width="1" height="1" fill="#397B44" />
<rect x="139" y="12" width="1" height="1" fill="#397B44" />
<rect x="140" y="12" width="1" height="1" fill="#3C5956" />
<rect x="141" y="12" width="1" height="1" fill="#3C5956" />
<rect x="142" y="12" width="1" height="1" fill="#3C5956" />
<rect x="143" y="12" width="1" height="1" fill="#3C5956" />
<rect x="144" y="12" width="1" height="1" fill="#397B44" />
<rect x="145" y="12" width="1" height="1" fill="#3C5956" />
<rect x="146" y="12" width="1" height="1" fill="#3C5956" />
<rect x="147" y="12" width="1" height="1" fill="#3C5956" />
<rect x="148" y="12" width="1" height="1" fill="#3C5956" />
<rect x="149" y="12" width="1" height="1" fill="#3C5956" />
<rect x="150" y="12" width="1" height="1" fill="#3C5956" />
<rect x="151" y="12" width="1" height="1" fill="#397B44" />
</svg>