<?xml version="1.0" encoding="utf-8"?>
<!-- Generator: Adobe Illustrator 27.0.1, SVG Export Plug-In . SVG Version: 6.00 Build 0)  -->
<svg version="1.1" id="Layer_1" xmlns="http://www.w3.org/2000/svg" xmlns:xlink="http://www.w3.org/1999/xlink" x="0px" y="0px"
	 viewBox="0 0 293.5 366.3" style="enable-background:new 0 0 293.5 366.3;" xml:space="preserve">
<g transform="translate(0.000000,400.000000) scale(0.100000,-0.100000)">
	<path d="M1030,3944.6c0-48-12-56-93-61l-76-5l-3-36c-3-34-5-36-40-39c-36-3-38-5-38-38s-1-34-40-34h-40v-445v-445H540H380v-40v-40
		h-40h-40v-40v-40h-40h-40v-40v-40h-40h-40v-85v-85h40c39,0,40-1,40-35s-1-35-40-35h-39l-3-82l-3-83l-37-3c-29-2-39-8-43-25
		c-3-12-4-139-3-282l3-260l43-3l42-3v-120v-119h40h40v-80v-80h40h40v-80v-80h40h40v-40v-40h40h40v-40v-40h40h40v-40v-40h40h40v-120
		v-120h-34c-22,0-36-6-40-16c-3-9-6-65-6-125v-109l363,2l362,3l2,85c1,47,2,138,2,203l1,117h40h40v40v40h40c40,0,40,0,40-39
		s1-40,38-43l37-3l3-202l2-203h365h365v125v125h-40h-40v120v120h-40h-40v200v200h-40h-40v63c0,94-6,107-46,107h-34v75v75h240h240
		v-80v-80h120h120v119v120l38,3l37,3l3,157l3,157l82,3l82,3l3,123l3,122h-86h-85v690v690h-40h-40v120v120h-40c-39,0-40,1-40,35
		s-1,35-40,35s-40-1-40-35s-1-35-40-35h-40v-80v-80h-40h-40l-2-727l-3-728l-77-3l-78-3v81v80h40h41l-3,122c-3,115-4,123-23,124
		c-54,2-55,3-55,44v40h-40h-40v40v40h-80h-80l-2,443l-3,442l-37,3l-37,3l-3,77l-3,76l-35,1c-27,0-35,5-38,20c-9,62-11,65-47,65
		c-32,0-34,2-37,38l-3,37l-322,3l-323,2V3944.6z M1110,3841.6v-40h-40h-40v40v40h40h40V3841.6z M2560,3721.6v-80h-40h-40v-80v-80
		h-40h-40v80v80h40h40v80v80h40h40V3721.6z M1190,3686.6v-45h-165H860v38c0,21,3,42,7,45c3,4,78,7,165,7h158V3686.6z M868,3244.6
		l-3-248h-40h-40l-3,235c-1,129,0,240,2,247c3,8,22,13,46,13h40L868,3244.6z M465,2716.6c0-40,0-40-42-43l-43-3v46v46l43-3
		C465,2756.6,465,2756.6,465,2716.6z M860,2630.6v-40l-37,3c-36,3-38,5-41,41l-3,37h40h41V2630.6z M2000,2631.6v-40h-45h-45v40v40
		h45h45V2631.6z M780,2551.6v-40h79h80l3-37c3-37,4-38,46-41s42-3,42-43c0-39,0-39,40-39h40v40v40h320h320v-360v-360h-240h-240v240
		v240h-40h-40v-280v-280h-40h-39l-3-122l-3-123l-37-3l-37-3l-3-77l-3-77l-37-3l-36-3l-7-80l-7-79h-39c-39,0-39,0-39-40v-40h-40h-40
		v-40v-40h-40h-40v-40v-40h-40h-40v40v40h-40h-40v40v40h-40h-40v40v40h-40h-40v80v80h-40h-40v80v80h-40h-40v125v125h-40h-40v280v280
		h40h40v80v80h40h40v40v40h40h40v40v40h80h80v40v40h120h120V2551.6z M2800,2071.6v-40h-240h-240v40v40h240h240V2071.6z M2150,1991.6
		c0-39-1-40-35-40s-35,1-35,40s1,40,35,40S2150,2030.6,2150,1991.6z M1830,1421.6v-40h40h40v-80v-80h40h40v-160v-160h-560H870v40v40
		h40h40v40v40h40h40v80v80h40h40v80v80h40h40v40v40h320h320V1421.6z M790,701.6v-40h-45h-45v40v40h45h45V701.6z M2070,701.6v-40h-40
		h-40v40v40h40h40V701.6z M865,536.6v-40H745H625l-3,43l-3,43l123-3l123-3V536.6z M2155,536.6v-40l-122-3l-123-3v39c0,21,3,42,7,46
		c4,3,59,5,122,4l116-3V536.6z"/>
	<path d="M460,2391.6v-40h-40h-40v-40v-40h-40h-40v-120v-120h80h80v-40v-40h40h40v-160v-160h-40c-40,0-40,0-40-39s-1-40-37-43l-38-3
		l-3-122l-3-123h41h40v-80v-80h40h40v-40v-40h40h40v80v80h-40h-40v80v80h-40h-40v40v40h40h40v45v45h40h40v80v80h40h40v-80v-80h39
		c40,0,40,0,43-42c3-43,3-43,46-46s43-3,40-40c-3-36-4-37-45-40l-43-3v-80v-79h-40h-40v-80v-80h40c40,0,40,0,40,39c0,40,0,40,43,43
		l42,3l3,78l3,77h40h40l-3,123l-3,122l-37,3c-35,3-37,5-40,40c-3,36-4,37-45,40l-43,3v160v159h45h45v40v40h80h80v120v120h-40h-40v40
		v40h-40h-40v40v40h-45h-46l3-77l3-78l43-3c42-3,42-3,42-43v-39h41h40l-3-37l-3-38l-82-3l-83-3v-39c0-40,0-40-40-40h-40v-80v-80h-40
		h-40v80v80h-40h-40v40v40h-80h-80v40v40h40h40v40v40h40h40v80v80h-40h-40V2391.6z"/>
	<path d="M628,2231.6l3-120h35h34v120v120h-37h-38L628,2231.6z"/>
	<path d="M1110,2271.6v-80h40h40v80v80h-40h-40V2271.6z"/>
	<path d="M300,1786.6v-155h40h40v155v155h-40h-40V1786.6z"/>
	<path d="M950,1786.6v-155h35h35v155v155h-35h-35V1786.6z"/>
	<path d="M627,1403.6c0-31,2-65,2-74c1-14,10-18,36-18h35v75v75h-37h-38L627,1403.6z"/>
</g>
</svg>
